<svg xmlns="http://www.w3.org/2000/svg" viewBox="0 0 920 300" role="img" aria-labelledby="title desc">
  <title id="title">FRC CMS &amp; TICKETS</title>
  <desc id="desc">FRC logo mark with CMS &amp; TICKETS subtitle.</desc>
  <defs>
    <linearGradient id="frcGold" x1="0" y1="0" x2="1" y2="1">
      <stop offset="0" stop-color="#ffad28"/>
      <stop offset="0.46" stop-color="#fff000"/>
      <stop offset="1" stop-color="#ffb02f"/>
    </linearGradient>
  </defs>

  <g fill="none" stroke="url(#frcGold)" stroke-linecap="round" stroke-linejoin="round">
    <path d="M38 205a112 112 0 1 1 222 0" stroke-width="26"/>
    <path d="M74 205a76 76 0 1 1 150 0" stroke-width="16"/>
    <path d="M106 205a44 44 0 1 1 86 0" stroke-width="10"/>
    <path d="M149 204l-20 92h40z" fill="url(#frcGold)" stroke-width="0"/>
    <circle cx="149" cy="204" r="21" fill="url(#frcGold)" stroke-width="0"/>
  </g>

  <g fill="none" stroke="url(#frcGold)" stroke-linecap="round" stroke-linejoin="round" stroke-width="20">
    <path d="M330 248V122q0-44 44-44h115"/>
    <path d="M372 157h92"/>
    <path d="M540 248V122q0-44 44-44h86q52 0 52 48v28q0 48-52 48h-80"/>
    <path d="M722 202l50 46"/>
    <path d="M868 78H768q-48 0-48 48v74q0 48 48 48h100"/>
  </g>

  <text x="330" y="290"
        fill="url(#frcGold)"
        font-family="Montserrat, Arial, Helvetica, sans-serif"
        font-size="52"
        font-weight="700"
        letter-spacing="18">
    CMS &amp; TICKETS
  </text>
</svg>
